<svg width="402" height="400" viewBox="0 0 402 400" fill="none" xmlns="http://www.w3.org/2000/svg">
<path d="M315.675 165.325L251 231.15V49.5C251.003 42.9986 249.725 36.5604 247.239 30.5533C244.752 24.5462 241.106 19.0881 236.509 14.4909C231.912 9.89374 226.454 6.24772 220.447 3.76127C214.439 1.27483 208.001 -0.00327968 201.5 6.32011e-06H200.5C193.998 -0.00327968 187.56 1.27483 181.553 3.76127C175.546 6.24772 170.088 9.89374 165.491 14.4909C160.894 19.0881 157.248 24.5462 154.761 30.5533C152.275 36.5604 150.997 42.9986 151 49.5V223.575L144.5 222.525L88.2998 166.85C79.8247 158.066 68.543 152.525 56.4107 151.187C44.2784 149.849 32.0603 152.799 21.8748 159.525C15.9572 163.671 11.0227 169.066 7.42017 175.33C3.81767 181.593 1.6352 188.571 1.02707 195.771C0.418941 202.971 1.40002 210.216 3.90092 216.995C6.40182 223.774 10.3614 229.92 15.4998 235L167.35 385.4C176.786 394.709 189.508 399.927 202.762 399.927C216.017 399.927 228.739 394.709 238.175 385.4L386.525 235.4C391.173 230.818 394.865 225.357 397.385 219.336C399.904 213.315 401.202 206.852 401.202 200.325C401.202 193.798 399.904 187.335 397.385 181.314C394.865 175.293 391.173 169.832 386.525 165.25C377.081 155.938 364.347 150.724 351.084 150.738C337.822 150.752 325.099 155.993 315.675 165.325Z" fill="#30313D"/>
</svg>
