<?xml version="1.0" encoding="utf-8"?>
<!-- Generator: Adobe Illustrator 16.0.0, SVG Export Plug-In . SVG Version: 6.00 Build 0)  -->
<!DOCTYPE svg PUBLIC "-//W3C//DTD SVG 1.1//EN" "http://www.w3.org/Graphics/SVG/1.1/DTD/svg11.dtd">
<svg version="1.1" id="Layer_1" xmlns="http://www.w3.org/2000/svg" xmlns:xlink="http://www.w3.org/1999/xlink" x="0px" y="0px"
	 width="107px" height="122px" viewBox="41.5 35.5 107 122" enable-background="new 41.5 35.5 107 122" xml:space="preserve">
<g>
	<g>
		<g>
			<path fill="#1E0F03" d="M58.9,87.7c5.8,8.6,19.3,11.9,28.8,13.399c15,2.399,30.7-0.5,42-11.201c2-1.9-1-5-3.101-3.1
				c-10.199,9.7-24.199,12-37.701,10.1c-8.1-1.1-21.2-4.1-26.2-11.4C61.1,83.2,57.3,85.4,58.9,87.7L58.9,87.7z"/>
		</g>
	</g>
	<g>
		<g>
			<path fill="#1E0F03" d="M62.7,144.6c4.8-7.199,17.2-9.8,25-11.199c13.8-2.5,28.6,0.101,38.899,9.899c2,1.9,5.101-1.1,3.101-3.1
				c-11-10.4-26.101-13.5-40.8-11.4c-9.8,1.4-24,4.7-30,13.601C57.3,144.7,61.1,146.9,62.7,144.6L62.7,144.6z"/>
		</g>
	</g>
	<g>
		<g>
			<path fill="#1E0F03" d="M49.7,110.9c11.7,4.6,25.6,5.699,38,6.3c18,0.899,37.2-0.9,53.2-9.7c2.5-1.4,0.3-5.1-2.2-3.8
				c-15.4,8.5-33.7,9.8-51,9.1c-12.1-0.5-25.5-1.6-36.9-6.1C48.2,105.7,47.1,109.9,49.7,110.9L49.7,110.9z"/>
		</g>
	</g>
</g>
<path opacity="0.8" fill="#754C24" enable-background="new    " d="M60.8,120c-0.3,12.8,26.2,45.4,32.4,28.2c0.5-1.4,0.9-3,1.3-4.7
	c0.4,1.7,0.8,3.3,1.3,4.7c6.2,17.2,32.7-15.5,32.4-28.2C127.9,107.2,61.1,107.2,60.8,120z"/>
<g>
	<path fill="#031612" d="M109,93.8c0,0,0.5-19.2-8.3-23C91.9,67,81,69.3,78.6,79.5C76.2,89.6,78,90.9,78,90.9s15.4,4.5,24.7,4.3
		C109,93.8,109,93.8,109,93.8z"/>
	<defs>
		<filter id="Adobe_OpacityMaskFilter" filterUnits="userSpaceOnUse" x="82.308" y="68.158" width="26.864" height="26.584">
			<feColorMatrix  type="matrix" values="1 0 0 0 0  0 1 0 0 0  0 0 1 0 0  0 0 0 1 0"/>
		</filter>
	</defs>
	<mask maskUnits="userSpaceOnUse" x="82.308" y="68.158" width="26.864" height="26.584" id="SVGID_4_">
		<g filter="url(#Adobe_OpacityMaskFilter)">
			
				<radialGradient id="SVGID_1_" cx="-1325.6729" cy="169.1816" r="39.4054" fx="-1318.5916" fy="147.3235" gradientTransform="matrix(0.1665 0.3426 -0.3484 0.1693 376.1495 508.0988)" gradientUnits="userSpaceOnUse">
				<stop  offset="0.1116" style="stop-color:#FFFFFF"/>
				<stop  offset="0.7033" style="stop-color:#000418"/>
			</radialGradient>
			<polygon fill="url(#SVGID_1_)" points="104.3,54.6 123.6,94.2 81.3,114.8 62,75.2 			"/>
		</g>
	</mask>
	<path opacity="0.3" mask="url(#SVGID_4_)" fill="#FFFFFF" enable-background="new    " d="M89.3,69.4c6.3-3.1,14.101-0.2,17.3,6.5
		c3.2,6.7,5.301,22.4-5.6,17.6c-6.3,3.1-14.1,0.2-17.3-6.5C80.5,80.4,83,72.5,89.3,69.4z"/>
</g>
<g>
	<path fill="none" stroke="#17211A" stroke-width="1.4553" stroke-miterlimit="10" d="M97.8,75.2c-2.3-7.8-1.5-23.9,11-25"/>
	
		<ellipse transform="matrix(-0.6003 0.7998 -0.7998 -0.6003 218.348 -7.3362)" fill="#17211A" stroke="#17211A" stroke-width="1.4553" stroke-miterlimit="10" cx="111.007" cy="50.897" rx="2" ry="2.6"/>
</g>
<g>
	<path fill="none" stroke="#17211A" stroke-width="1.4553" stroke-miterlimit="10" d="M75.1,50.5c13.4,2.2,14.5,20,12.1,28.4"/>
	
		<ellipse transform="matrix(-0.5751 -0.8181 0.8181 -0.5751 73.0617 140.4297)" fill="#17211A" stroke="#17211A" stroke-width="1.4553" stroke-miterlimit="10" cx="72.999" cy="51.241" rx="2.3" ry="2.7"/>
</g>
<radialGradient id="SVGID_2_" cx="279.0449" cy="604.2695" r="34.2437" gradientTransform="matrix(0.9258 0.2927 -0.301 0.9519 18.2961 -541.53)" gradientUnits="userSpaceOnUse">
	<stop  offset="0" style="stop-color:#F15A24"/>
	<stop  offset="1" style="stop-color:#C1272D"/>
</radialGradient>
<path fill="url(#SVGID_2_)" d="M104.6,84.2c18.2,5.8,28.602,24.399,23.2,41.6c-5.399,17.2-24.6,26.5-42.9,20.7
	c-18.2-5.8-28.6-24.4-23.2-41.6C67.1,87.7,86.3,78.4,104.6,84.2z"/>
<ellipse transform="matrix(0.9411 -0.3381 0.3381 0.9411 -33.8303 30.6284)" fill="#17211A" cx="71.018" cy="112.439" rx="6.8" ry="7.6"/>
<path fill="#17211A" d="M78.6,97.4c-1.3-3.6,0.4-7.4,3.7-8.6c3.3-1.2,7,0.7,8.3,4.3c1.3,3.6-0.4,7.4-3.7,8.6
	C83.6,102.9,79.9,100.9,78.6,97.4z"/>
<circle fill="#17211A" cx="83.2" cy="132.3" r="7.3"/>
<path fill="#17211A" d="M116.8,120.5c-3.6-1-5.7-5.1-4.6-9.1c1.1-4.102,4.899-6.5,8.6-5.602c3.601,1,5.7,5.102,4.601,9.102
	C124.2,119,120.4,121.5,116.8,120.5z"/>
<path fill="#17211A" d="M102,101.9c-3.4-0.9-5.3-4.602-4.3-8.3c1-3.7,4.5-5.9,7.899-5s5.301,4.6,4.301,8.3
	C109,100.6,105.4,102.8,102,101.9z"/>
<circle fill="#17211A" cx="106.8" cy="132" r="7.3"/>
<path fill="#4F2A0C" d="M94.4,82.5c-1,5.1-1.3,40.8-0.5,65.7c0,0,2.4,0,1.4,0c0,0,0.9-25.5,0.6-38.7C95.5,96.2,94.4,82.5,94.4,82.5z
	"/>
</svg>
