<svg width="379" height="211" viewBox="0 0 379 211" fill="none" xmlns="http://www.w3.org/2000/svg">
<g clip-path="url(#clip0_11_2153)">
<path d="M189.5 159.463C290.055 159.463 371.583 127.004 371.583 86.9629C371.583 46.9219 290.052 14.4629 189.5 14.4629C88.939 14.4629 7.41797 46.9219 7.41797 86.9629C7.41797 118.609 58.342 145.514 129.338 155.406C129.299 156.385 129.347 157.427 129.517 158.552C134.035 188.33 164.708 202.824 186.07 211C186.07 211 154.834 178.463 183.757 159.415C185.671 159.447 187.582 159.463 189.5 159.463Z" fill="#FAFDFD" stroke="#1F2120" stroke-miterlimit="10"/>
<path d="M136.63 73.0078V105H131.115L116.767 82.0825V105H111.252V73.0078H116.767L131.159 95.9692V73.0078H136.63ZM168.71 88.125V89.8828C168.71 92.2998 168.396 94.4678 167.766 96.3867C167.136 98.3057 166.235 99.939 165.063 101.287C163.906 102.634 162.514 103.667 160.888 104.385C159.262 105.088 157.46 105.439 155.483 105.439C153.52 105.439 151.726 105.088 150.1 104.385C148.488 103.667 147.089 102.634 145.903 101.287C144.716 99.939 143.793 98.3057 143.134 96.3867C142.49 94.4678 142.167 92.2998 142.167 89.8828V88.125C142.167 85.708 142.49 83.5474 143.134 81.6431C143.779 79.7241 144.687 78.0908 145.859 76.7432C147.045 75.3809 148.444 74.3481 150.056 73.645C151.682 72.9272 153.476 72.5684 155.439 72.5684C157.417 72.5684 159.218 72.9272 160.844 73.645C162.47 74.3481 163.869 75.3809 165.041 76.7432C166.213 78.0908 167.114 79.7241 167.744 81.6431C168.388 83.5474 168.71 85.708 168.71 88.125ZM163.195 89.8828V88.0811C163.195 86.2939 163.02 84.7192 162.668 83.3569C162.331 81.98 161.826 80.8301 161.152 79.9072C160.493 78.9697 159.68 78.2666 158.713 77.7979C157.746 77.3145 156.655 77.0728 155.439 77.0728C154.223 77.0728 153.139 77.3145 152.187 77.7979C151.235 78.2666 150.422 78.9697 149.748 79.9072C149.089 80.8301 148.583 81.98 148.232 83.3569C147.88 84.7192 147.705 86.2939 147.705 88.0811V89.8828C147.705 91.6699 147.88 93.252 148.232 94.6289C148.583 96.0059 149.096 97.1704 149.77 98.1226C150.458 99.0601 151.279 99.7705 152.231 100.254C153.183 100.723 154.267 100.957 155.483 100.957C156.713 100.957 157.805 100.723 158.757 100.254C159.709 99.7705 160.515 99.0601 161.174 98.1226C161.833 97.1704 162.331 96.0059 162.668 94.6289C163.02 93.252 163.195 91.6699 163.195 89.8828ZM197.429 90.542H189.277L189.233 86.521H196.352C197.553 86.521 198.571 86.3452 199.406 85.9937C200.256 85.6274 200.9 85.1074 201.34 84.4336C201.779 83.7451 201.999 82.9175 201.999 81.9507C201.999 80.8813 201.794 80.0098 201.384 79.3359C200.974 78.6621 200.344 78.1714 199.494 77.8638C198.659 77.5562 197.59 77.4023 196.286 77.4023H190.947V105H185.432V73.0078H196.286C198.044 73.0078 199.611 73.1763 200.988 73.5132C202.38 73.8501 203.559 74.3774 204.526 75.0952C205.507 75.7983 206.247 76.6919 206.745 77.7759C207.258 78.8599 207.514 80.1489 207.514 81.6431C207.514 82.9614 207.199 84.1699 206.569 85.2686C205.939 86.3525 205.009 87.2388 203.779 87.9272C202.548 88.6157 201.018 89.0259 199.187 89.1577L197.429 90.542ZM197.187 105H187.541L190.024 100.627H197.187C198.432 100.627 199.472 100.422 200.307 100.012C201.142 99.5874 201.765 99.0088 202.175 98.2764C202.6 97.5293 202.812 96.6577 202.812 95.6616C202.812 94.6216 202.629 93.7207 202.263 92.959C201.896 92.1826 201.318 91.5894 200.527 91.1792C199.736 90.7544 198.703 90.542 197.429 90.542H191.232L191.276 86.521H199.34L200.593 88.0371C202.351 88.0957 203.793 88.4839 204.921 89.2017C206.064 89.9194 206.914 90.8496 207.47 91.9922C208.027 93.1348 208.305 94.3652 208.305 95.6836C208.305 97.7197 207.858 99.4263 206.965 100.803C206.086 102.18 204.819 103.228 203.164 103.945C201.508 104.648 199.516 105 197.187 105ZM231.816 73.0078H237.309V94.3872C237.309 96.8188 236.782 98.855 235.727 100.496C234.672 102.136 233.237 103.374 231.42 104.209C229.619 105.029 227.604 105.439 225.378 105.439C223.078 105.439 221.027 105.029 219.226 104.209C217.424 103.374 216.003 102.136 214.963 100.496C213.938 98.855 213.425 96.8188 213.425 94.3872V73.0078H218.918V94.3872C218.918 95.9253 219.182 97.1924 219.709 98.1885C220.236 99.1699 220.983 99.895 221.95 100.364C222.917 100.833 224.06 101.067 225.378 101.067C226.696 101.067 227.832 100.833 228.784 100.364C229.75 99.895 230.498 99.1699 231.025 98.1885C231.552 97.1924 231.816 95.9253 231.816 94.3872V73.0078ZM267.873 88.6523V100.869C267.419 101.47 266.708 102.129 265.742 102.847C264.79 103.55 263.522 104.158 261.94 104.67C260.358 105.183 258.388 105.439 256.03 105.439C254.023 105.439 252.185 105.103 250.515 104.429C248.845 103.74 247.402 102.737 246.186 101.418C244.985 100.1 244.055 98.4961 243.396 96.6064C242.736 94.7021 242.407 92.5342 242.407 90.1025V87.8833C242.407 85.4663 242.707 83.313 243.308 81.4233C243.923 79.519 244.802 77.9077 245.944 76.5894C247.087 75.271 248.464 74.2749 250.075 73.6011C251.701 72.9126 253.54 72.5684 255.59 72.5684C258.212 72.5684 260.38 73.0078 262.094 73.8867C263.823 74.751 265.156 75.9521 266.093 77.4902C267.031 79.0283 267.624 80.7861 267.873 82.7637H262.468C262.292 81.6504 261.948 80.6543 261.435 79.7754C260.937 78.8965 260.219 78.208 259.282 77.71C258.359 77.1973 257.158 76.9409 255.678 76.9409C254.404 76.9409 253.283 77.1826 252.316 77.666C251.35 78.1494 250.544 78.8599 249.899 79.7974C249.27 80.7349 248.793 81.8774 248.471 83.2251C248.149 84.5728 247.988 86.1108 247.988 87.8394V90.1025C247.988 91.8604 248.171 93.4204 248.537 94.7827C248.918 96.145 249.46 97.2949 250.163 98.2324C250.881 99.1699 251.752 99.8804 252.778 100.364C253.803 100.833 254.96 101.067 256.25 101.067C257.509 101.067 258.542 100.964 259.348 100.759C260.153 100.54 260.791 100.283 261.259 99.9902C261.743 99.6826 262.116 99.3896 262.38 99.1113V92.7612H255.722V88.6523H267.873Z" fill="black"/>
</g>
<defs>
<clipPath id="clip0_11_2153">
<rect width="379" height="211" fill="white"/>
</clipPath>
</defs>
</svg>
