<svg width="399" height="194" viewBox="0 0 399 194" fill="none" xmlns="http://www.w3.org/2000/svg">
<path d="M74.4921 154.1C69.3261 165.709 63.1201 176.291 52.1871 182.938C39.8351 190.44 89.7691 185.545 123.357 167.377C146.701 171.754 172.443 174.19 199.501 174.19C305.473 174.19 391.379 136.919 391.379 90.9381C391.379 44.9581 305.473 7.68408 199.501 7.68408C93.5291 7.68408 7.62109 44.9591 7.62109 90.9381C7.62109 116.197 33.5541 138.828 74.4921 154.1Z" fill="#FAFDFD" stroke="#1F2120" stroke-miterlimit="10"/>
<path d="M99.6304 81.0078V113H94.1152L79.7671 90.0825V113H74.252V81.0078H79.7671L94.1592 103.969V81.0078H99.6304ZM131.71 96.125V97.8828C131.71 100.3 131.396 102.468 130.766 104.387C130.136 106.306 129.235 107.939 128.063 109.287C126.906 110.634 125.514 111.667 123.888 112.385C122.262 113.088 120.46 113.439 118.483 113.439C116.52 113.439 114.726 113.088 113.1 112.385C111.488 111.667 110.089 110.634 108.903 109.287C107.716 107.939 106.793 106.306 106.134 104.387C105.49 102.468 105.167 100.3 105.167 97.8828V96.125C105.167 93.708 105.49 91.5474 106.134 89.6431C106.779 87.7241 107.687 86.0908 108.859 84.7432C110.045 83.3809 111.444 82.3481 113.056 81.645C114.682 80.9272 116.476 80.5684 118.439 80.5684C120.417 80.5684 122.218 80.9272 123.844 81.645C125.47 82.3481 126.869 83.3809 128.041 84.7432C129.213 86.0908 130.114 87.7241 130.744 89.6431C131.388 91.5474 131.71 93.708 131.71 96.125ZM126.195 97.8828V96.0811C126.195 94.2939 126.02 92.7192 125.668 91.3569C125.331 89.98 124.826 88.8301 124.152 87.9072C123.493 86.9697 122.68 86.2666 121.713 85.7979C120.746 85.3145 119.655 85.0728 118.439 85.0728C117.223 85.0728 116.139 85.3145 115.187 85.7979C114.235 86.2666 113.422 86.9697 112.748 87.9072C112.089 88.8301 111.583 89.98 111.232 91.3569C110.88 92.7192 110.705 94.2939 110.705 96.0811V97.8828C110.705 99.6699 110.88 101.252 111.232 102.629C111.583 104.006 112.096 105.17 112.77 106.123C113.458 107.06 114.279 107.771 115.231 108.254C116.183 108.723 117.267 108.957 118.483 108.957C119.713 108.957 120.805 108.723 121.757 108.254C122.709 107.771 123.515 107.06 124.174 106.123C124.833 105.17 125.331 104.006 125.668 102.629C126.02 101.252 126.195 99.6699 126.195 97.8828ZM165.263 104.76C165.263 104.101 165.16 103.515 164.955 103.002C164.765 102.49 164.42 102.021 163.922 101.596C163.424 101.171 162.721 100.761 161.813 100.366C160.919 99.9556 159.777 99.5381 158.385 99.1133C156.862 98.6445 155.456 98.1245 154.167 97.5532C152.892 96.9673 151.779 96.2935 150.827 95.5317C149.875 94.7554 149.135 93.8691 148.607 92.873C148.08 91.8623 147.816 90.6978 147.816 89.3794C147.816 88.0757 148.087 86.8892 148.629 85.8198C149.186 84.7505 149.97 83.8276 150.98 83.0513C152.006 82.2603 153.214 81.6523 154.606 81.2275C155.998 80.7881 157.536 80.5684 159.22 80.5684C161.593 80.5684 163.637 81.0078 165.351 81.8867C167.079 82.7656 168.405 83.9448 169.328 85.4243C170.265 86.9038 170.734 88.5371 170.734 90.3242H165.263C165.263 89.2695 165.036 88.3394 164.582 87.5337C164.142 86.7134 163.468 86.0688 162.56 85.6001C161.667 85.1313 160.531 84.897 159.154 84.897C157.851 84.897 156.767 85.0947 155.902 85.4902C155.038 85.8857 154.394 86.4204 153.969 87.0942C153.544 87.7681 153.332 88.5298 153.332 89.3794C153.332 89.98 153.471 90.5293 153.749 91.0273C154.027 91.5107 154.452 91.9648 155.023 92.3896C155.595 92.7998 156.312 93.188 157.177 93.5542C158.041 93.9204 159.059 94.272 160.231 94.6089C162.003 95.1362 163.549 95.7222 164.867 96.3667C166.186 96.9966 167.284 97.7144 168.163 98.52C169.042 99.3257 169.701 100.241 170.141 101.267C170.58 102.277 170.8 103.427 170.8 104.716C170.8 106.064 170.529 107.28 169.987 108.364C169.445 109.433 168.668 110.349 167.658 111.11C166.662 111.857 165.46 112.436 164.054 112.846C162.663 113.242 161.11 113.439 159.396 113.439C157.858 113.439 156.342 113.234 154.848 112.824C153.368 112.414 152.021 111.792 150.805 110.957C149.589 110.107 148.622 109.052 147.904 107.792C147.187 106.518 146.828 105.031 146.828 103.332H152.343C152.343 104.372 152.519 105.258 152.87 105.991C153.236 106.723 153.742 107.324 154.386 107.792C155.031 108.247 155.778 108.583 156.627 108.803C157.492 109.023 158.415 109.133 159.396 109.133C160.685 109.133 161.762 108.95 162.626 108.583C163.505 108.217 164.164 107.705 164.604 107.045C165.043 106.386 165.263 105.625 165.263 104.76ZM188.136 85.2705L178.578 113H172.799L184.84 81.0078H188.532L188.136 85.2705ZM196.134 113L186.554 85.2705L186.137 81.0078H189.85L201.935 113H196.134ZM195.673 101.135V105.507H178.271V101.135H195.673ZM214.811 113H207.978L208.021 108.627H214.811C216.789 108.627 218.444 108.195 219.777 107.331C221.125 106.467 222.135 105.229 222.809 103.618C223.498 102.006 223.842 100.087 223.842 97.8608V96.125C223.842 94.3965 223.644 92.8657 223.249 91.5327C222.868 90.1997 222.296 89.0791 221.535 88.1709C220.788 87.2627 219.865 86.5742 218.766 86.1055C217.682 85.6367 216.43 85.4023 215.009 85.4023H207.846V81.0078H215.009C217.133 81.0078 219.074 81.3667 220.832 82.0845C222.589 82.7876 224.105 83.8057 225.38 85.1387C226.669 86.4717 227.658 88.0684 228.346 89.9287C229.035 91.7891 229.379 93.8691 229.379 96.1689V97.8608C229.379 100.161 229.035 102.241 228.346 104.101C227.658 105.961 226.669 107.558 225.38 108.891C224.091 110.209 222.553 111.228 220.766 111.945C218.993 112.648 217.008 113 214.811 113ZM211.032 81.0078V113H205.517V81.0078H211.032ZM260.294 81.0078V113H254.779L240.431 90.0825V113H234.916V81.0078H240.431L254.823 103.969V81.0078H260.294ZM287.804 108.627V113H270.819V108.627H287.804ZM272.379 81.0078V113H266.864V81.0078H272.379ZM285.585 94.3672V98.6738H270.819V94.3672H285.585ZM287.694 81.0078V85.4023H270.819V81.0078H287.694ZM309.14 104.76C309.14 104.101 309.037 103.515 308.832 103.002C308.642 102.49 308.297 102.021 307.799 101.596C307.301 101.171 306.598 100.761 305.69 100.366C304.796 99.9556 303.654 99.5381 302.262 99.1133C300.739 98.6445 299.333 98.1245 298.043 97.5532C296.769 96.9673 295.656 96.2935 294.704 95.5317C293.751 94.7554 293.012 93.8691 292.484 92.873C291.957 91.8623 291.693 90.6978 291.693 89.3794C291.693 88.0757 291.964 86.8892 292.506 85.8198C293.063 84.7505 293.847 83.8276 294.857 83.0513C295.883 82.2603 297.091 81.6523 298.483 81.2275C299.875 80.7881 301.413 80.5684 303.097 80.5684C305.47 80.5684 307.514 81.0078 309.228 81.8867C310.956 82.7656 312.282 83.9448 313.205 85.4243C314.142 86.9038 314.611 88.5371 314.611 90.3242H309.14C309.14 89.2695 308.913 88.3394 308.458 87.5337C308.019 86.7134 307.345 86.0688 306.437 85.6001C305.543 85.1313 304.408 84.897 303.031 84.897C301.728 84.897 300.644 85.0947 299.779 85.4902C298.915 85.8857 298.271 86.4204 297.846 87.0942C297.421 87.7681 297.208 88.5298 297.208 89.3794C297.208 89.98 297.348 90.5293 297.626 91.0273C297.904 91.5107 298.329 91.9648 298.9 92.3896C299.472 92.7998 300.189 93.188 301.054 93.5542C301.918 93.9204 302.936 94.272 304.108 94.6089C305.88 95.1362 307.426 95.7222 308.744 96.3667C310.062 96.9966 311.161 97.7144 312.04 98.52C312.919 99.3257 313.578 100.241 314.018 101.267C314.457 102.277 314.677 103.427 314.677 104.716C314.677 106.064 314.406 107.28 313.864 108.364C313.322 109.433 312.545 110.349 311.535 111.11C310.539 111.857 309.337 112.436 307.931 112.846C306.54 113.242 304.987 113.439 303.273 113.439C301.735 113.439 300.219 113.234 298.725 112.824C297.245 112.414 295.897 111.792 294.682 110.957C293.466 110.107 292.499 109.052 291.781 107.792C291.063 106.518 290.705 105.031 290.705 103.332H296.22C296.22 104.372 296.396 105.258 296.747 105.991C297.113 106.723 297.619 107.324 298.263 107.792C298.908 108.247 299.655 108.583 300.504 108.803C301.369 109.023 302.292 109.133 303.273 109.133C304.562 109.133 305.639 108.95 306.503 108.583C307.382 108.217 308.041 107.705 308.48 107.045C308.92 106.386 309.14 105.625 309.14 104.76ZM336.386 104.76C336.386 104.101 336.283 103.515 336.078 103.002C335.888 102.49 335.543 102.021 335.045 101.596C334.547 101.171 333.844 100.761 332.936 100.366C332.042 99.9556 330.9 99.5381 329.508 99.1133C327.985 98.6445 326.579 98.1245 325.29 97.5532C324.015 96.9673 322.902 96.2935 321.95 95.5317C320.998 94.7554 320.258 93.8691 319.73 92.873C319.203 91.8623 318.939 90.6978 318.939 89.3794C318.939 88.0757 319.21 86.8892 319.752 85.8198C320.309 84.7505 321.093 83.8276 322.104 83.0513C323.129 82.2603 324.337 81.6523 325.729 81.2275C327.121 80.7881 328.659 80.5684 330.343 80.5684C332.716 80.5684 334.76 81.0078 336.474 81.8867C338.202 82.7656 339.528 83.9448 340.451 85.4243C341.388 86.9038 341.857 88.5371 341.857 90.3242H336.386C336.386 89.2695 336.159 88.3394 335.705 87.5337C335.265 86.7134 334.591 86.0688 333.683 85.6001C332.79 85.1313 331.654 84.897 330.277 84.897C328.974 84.897 327.89 85.0947 327.025 85.4902C326.161 85.8857 325.517 86.4204 325.092 87.0942C324.667 87.7681 324.455 88.5298 324.455 89.3794C324.455 89.98 324.594 90.5293 324.872 91.0273C325.15 91.5107 325.575 91.9648 326.146 92.3896C326.718 92.7998 327.436 93.188 328.3 93.5542C329.164 93.9204 330.182 94.272 331.354 94.6089C333.126 95.1362 334.672 95.7222 335.99 96.3667C337.309 96.9966 338.407 97.7144 339.286 98.52C340.165 99.3257 340.824 100.241 341.264 101.267C341.703 102.277 341.923 103.427 341.923 104.716C341.923 106.064 341.652 107.28 341.11 108.364C340.568 109.433 339.792 110.349 338.781 111.11C337.785 111.857 336.583 112.436 335.177 112.846C333.786 113.242 332.233 113.439 330.519 113.439C328.981 113.439 327.465 113.234 325.971 112.824C324.491 112.414 323.144 111.792 321.928 110.957C320.712 110.107 319.745 109.052 319.027 107.792C318.31 106.518 317.951 105.031 317.951 103.332H323.466C323.466 104.372 323.642 105.258 323.993 105.991C324.359 106.723 324.865 107.324 325.509 107.792C326.154 108.247 326.901 108.583 327.75 108.803C328.615 109.023 329.538 109.133 330.519 109.133C331.808 109.133 332.885 108.95 333.749 108.583C334.628 108.217 335.287 107.705 335.727 107.045C336.166 106.386 336.386 105.625 336.386 104.76Z" fill="black"/>
</svg>
