<svg width="378" height="171" viewBox="0 0 378 171" fill="none" xmlns="http://www.w3.org/2000/svg">
<path d="M376.433 73.9838C376.433 33.4559 293.381 0.600098 190.933 0.600098C88.4849 0.600098 5.43506 33.455 5.43506 73.9838C5.43506 114.513 88.4849 147.367 190.933 147.367C217.091 147.367 241.977 145.219 264.545 141.362C297.017 157.376 345.289 161.691 333.349 155.079C322.779 149.221 316.779 139.893 311.785 129.66C351.362 116.199 376.433 96.2508 376.433 73.9838Z" fill="#FAFDFD" stroke="#1F2120" stroke-miterlimit="10"/>
<path d="M139.083 76.7603C139.083 76.1011 138.98 75.5151 138.775 75.0024C138.585 74.4897 138.241 74.021 137.743 73.5962C137.245 73.1714 136.542 72.7612 135.633 72.3657C134.74 71.9556 133.597 71.5381 132.206 71.1133C130.682 70.6445 129.276 70.1245 127.987 69.5532C126.712 68.9673 125.599 68.2935 124.647 67.5317C123.695 66.7554 122.955 65.8691 122.428 64.873C121.9 63.8623 121.637 62.6978 121.637 61.3794C121.637 60.0757 121.908 58.8892 122.45 57.8198C123.006 56.7505 123.79 55.8276 124.801 55.0513C125.826 54.2603 127.035 53.6523 128.426 53.2275C129.818 52.7881 131.356 52.5684 133.041 52.5684C135.414 52.5684 137.457 53.0078 139.171 53.8867C140.899 54.7656 142.225 55.9448 143.148 57.4243C144.085 58.9038 144.554 60.5371 144.554 62.3242H139.083C139.083 61.2695 138.856 60.3394 138.402 59.5337C137.962 58.7134 137.289 58.0688 136.38 57.6001C135.487 57.1313 134.352 56.897 132.975 56.897C131.671 56.897 130.587 57.0947 129.723 57.4902C128.858 57.8857 128.214 58.4204 127.789 59.0942C127.364 59.7681 127.152 60.5298 127.152 61.3794C127.152 61.98 127.291 62.5293 127.569 63.0273C127.848 63.5107 128.272 63.9648 128.844 64.3896C129.415 64.7998 130.133 65.188 130.997 65.5542C131.861 65.9204 132.879 66.272 134.051 66.6089C135.824 67.1362 137.369 67.7222 138.688 68.3667C140.006 68.9966 141.104 69.7144 141.983 70.52C142.862 71.3257 143.521 72.2412 143.961 73.2666C144.4 74.2773 144.62 75.4272 144.62 76.7163C144.62 78.064 144.349 79.2798 143.807 80.3638C143.265 81.4331 142.489 82.3486 141.478 83.1104C140.482 83.8574 139.281 84.436 137.875 84.8462C136.483 85.2417 134.93 85.4395 133.216 85.4395C131.678 85.4395 130.162 85.2344 128.668 84.8242C127.188 84.4141 125.841 83.7915 124.625 82.9565C123.409 82.1069 122.442 81.0522 121.725 79.7925C121.007 78.5181 120.648 77.0312 120.648 75.332H126.163C126.163 76.3721 126.339 77.2583 126.69 77.9907C127.057 78.7231 127.562 79.3237 128.207 79.7925C128.851 80.2466 129.598 80.5835 130.448 80.8032C131.312 81.0229 132.235 81.1328 133.216 81.1328C134.505 81.1328 135.582 80.9497 136.446 80.5835C137.325 80.2173 137.984 79.7046 138.424 79.0454C138.863 78.3862 139.083 77.6245 139.083 76.7603ZM154.2 51.25V85H148.927V51.25H154.2ZM153.277 72.2339L151.563 72.2119C151.578 70.5713 151.805 69.0552 152.245 67.6636C152.699 66.272 153.329 65.0635 154.134 64.0381C154.955 62.998 155.936 62.1997 157.079 61.6431C158.221 61.0718 159.488 60.7861 160.88 60.7861C162.052 60.7861 163.106 60.9473 164.044 61.2695C164.996 61.5918 165.816 62.1118 166.505 62.8296C167.193 63.5327 167.713 64.4556 168.065 65.5981C168.431 66.7261 168.614 68.103 168.614 69.729V85H163.297V69.6851C163.297 68.5425 163.128 67.6343 162.792 66.9604C162.469 66.2866 161.993 65.8032 161.363 65.5103C160.733 65.2026 159.964 65.0488 159.056 65.0488C158.104 65.0488 157.262 65.2393 156.529 65.6201C155.812 66.001 155.211 66.521 154.728 67.1802C154.244 67.8394 153.878 68.6011 153.629 69.4653C153.395 70.3296 153.277 71.2524 153.277 72.2339ZM179.205 51.25V85H173.932V51.25H179.205ZM178.282 72.2339L176.568 72.2119C176.583 70.5713 176.81 69.0552 177.25 67.6636C177.704 66.272 178.333 65.0635 179.139 64.0381C179.959 62.998 180.941 62.1997 182.083 61.6431C183.226 61.0718 184.493 60.7861 185.885 60.7861C187.057 60.7861 188.111 60.9473 189.049 61.2695C190.001 61.5918 190.821 62.1118 191.51 62.8296C192.198 63.5327 192.718 64.4556 193.07 65.5981C193.436 66.7261 193.619 68.103 193.619 69.729V85H188.302V69.6851C188.302 68.5425 188.133 67.6343 187.796 66.9604C187.474 66.2866 186.998 65.8032 186.368 65.5103C185.738 65.2026 184.969 65.0488 184.061 65.0488C183.109 65.0488 182.267 65.2393 181.534 65.6201C180.816 66.001 180.216 66.521 179.732 67.1802C179.249 67.8394 178.883 68.6011 178.634 69.4653C178.399 70.3296 178.282 71.2524 178.282 72.2339ZM204.21 51.25V85H198.937V51.25H204.21ZM203.287 72.2339L201.573 72.2119C201.588 70.5713 201.815 69.0552 202.254 67.6636C202.708 66.272 203.338 65.0635 204.144 64.0381C204.964 62.998 205.946 62.1997 207.088 61.6431C208.231 61.0718 209.498 60.7861 210.89 60.7861C212.062 60.7861 213.116 60.9473 214.054 61.2695C215.006 61.5918 215.826 62.1118 216.515 62.8296C217.203 63.5327 217.723 64.4556 218.075 65.5981C218.441 66.7261 218.624 68.103 218.624 69.729V85H213.307V69.6851C213.307 68.5425 213.138 67.6343 212.801 66.9604C212.479 66.2866 212.003 65.8032 211.373 65.5103C210.743 65.2026 209.974 65.0488 209.066 65.0488C208.114 65.0488 207.271 65.2393 206.539 65.6201C205.821 66.001 205.221 66.521 204.737 67.1802C204.254 67.8394 203.888 68.6011 203.639 69.4653C203.404 70.3296 203.287 71.2524 203.287 72.2339ZM224.205 82.3633C224.205 81.543 224.483 80.8545 225.04 80.2979C225.597 79.7266 226.351 79.4409 227.303 79.4409C228.27 79.4409 229.024 79.7266 229.566 80.2979C230.123 80.8545 230.401 81.543 230.401 82.3633C230.401 83.1836 230.123 83.8721 229.566 84.4287C229.024 84.9854 228.27 85.2637 227.303 85.2637C226.351 85.2637 225.597 84.9854 225.04 84.4287C224.483 83.8721 224.205 83.1836 224.205 82.3633ZM236.729 82.3633C236.729 81.543 237.008 80.8545 237.564 80.2979C238.121 79.7266 238.875 79.4409 239.828 79.4409C240.794 79.4409 241.549 79.7266 242.091 80.2979C242.647 80.8545 242.926 81.543 242.926 82.3633C242.926 83.1836 242.647 83.8721 242.091 84.4287C241.549 84.9854 240.794 85.2637 239.828 85.2637C238.875 85.2637 238.121 84.9854 237.564 84.4287C237.008 83.8721 236.729 83.1836 236.729 82.3633ZM249.254 82.3633C249.254 81.543 249.532 80.8545 250.089 80.2979C250.646 79.7266 251.4 79.4409 252.352 79.4409C253.319 79.4409 254.073 79.7266 254.615 80.2979C255.172 80.8545 255.45 81.543 255.45 82.3633C255.45 83.1836 255.172 83.8721 254.615 84.4287C254.073 84.9854 253.319 85.2637 252.352 85.2637C251.4 85.2637 250.646 84.9854 250.089 84.4287C249.532 83.8721 249.254 83.1836 249.254 82.3633Z" fill="black"/>
</svg>
